<?xml version="1.0" encoding="UTF-8"?>
<svg xmlns="http://www.w3.org/2000/svg" viewBox="0 0 572.18 358.88">
  <defs>
    <style>
      .cls-1 {
        fill: none;
      }

      .cls-2 {
        fill: #fff;
      }

      .cls-3 {
        fill: #cf3f17;
      }
    </style>
  </defs>
  <g>
    <path class="cls-1" d="M339.74,309.23c4.52,1.81,10.73.72,15.78-.97,3.89-6.73,8.47-16.98,11.42-31.32,0,0,2.25,2.52,0,12.11-1.87,7.97-2.9,12.69-4.32,16.29,3.79-1.36,5.45-.43,10.69-12.04,5.95-13.17,14.45-42.06,14.45-42.06-12.96,14.45-27.73,25.71-55.47,23.79,0,1.7,1.08,31.65,7.46,34.2Z"/>
    <path class="cls-1" d="M72.16,157.5c-1.55-1.99-2.99-4.01-4.37-6.04-6.84,4.32-13.73,9.56-20.51,15.9-28.98,27.09-36.78,104.56,2.14,142.21-.7-.94-1.42-1.75-2.14-2.39,49.35,42.45,90.34-34.18,104.35-61.47-15.18-10.28-24.42-23.24-28.12-39.32-17.87-11.35-34.45-27.17-51.35-48.9Z"/>
    <path class="cls-3" d="M53.91,82.89c.76,19.04,5.51,46.68,23.85,70.25,14.68,18.87,29.05,33.1,44.23,43.7-1.52-16.57,2.07-36.07,11.17-60.84,10.59-28.82,29.45-53.62,54.55-71.71,9.03-6.51,18.62-11.95,28.66-16.3-20.76-.31-42.35,2.45-59.64,11.74-21.17,11.37-41.09,13.66-59.2,6.83-13.5-5.09-22.59-14.17-26.89-20.03-4.18,3.02-9.29,4.8-14.82,4.82-1.03,6.13-2.47,17.62-1.91,31.55Z"/>
    <g>
      <path class="cls-2" d="M467.94,176.05C467.94,82.17,384.47.43,290.58.43c-44.25,0-85.45,17.12-116.33,44.97-7.62,2.03-14.6,4.71-20.87,8.07-19.22,10.32-37.12,12.5-53.2,6.49-13.46-5.04-21.48-14.25-24.36-18.42,3.4-4.33,5.44-9.79,5.44-15.71C81.25,11.77,69.81.33,55.75.33s-25.51,11.44-25.51,25.51c0,11.65,7.85,21.49,18.53,24.53-1.08,6.48-2.52,18.2-1.97,32.58.48,12.55,2.62,28.65,8.89,45.09C22.01,153.79,0,195.41,0,239.81,0,291.7,21.62,332.08,65.17,353.65c53.38,31.19,90.34-91.14,94.56-99.16,3.44,7.35,9.25,22.28,41.51,22.95,0,0-25.65-12.58-25.28-44.52.73-6.75,1.8-13.25,3.13-19.5.37-1.24.76-2.49,1.2-3.77,13.88-40.45,33.21-75.86,58.68-97.92,25.78-19.65,55.25-24.36,60.99-25.79,1.64-.41,3.18-.76,4.64-1.06,18.02-.96,35.72,2.8,52.65,10.02,0,0-2.4-2.2-6.73-5.25-1.98-18.4-25.79-54.17-73.37-54.17h-.16c-14.86.02-29.42,2.15-43.35,6.27-6.53-.57-12.82-.89-18.86-.93,19.29-12,45.23-20.2,80.59-19.76,109.73,1.37,139.61,117.38,139.65,156.05,0,.16,0,.32,0,.48l-.06,27.32,27.22-2.36c2.16-.19,4.3-.28,6.36-.28,39.85,0,80.55,31.01,80.55,70.86s-40.7,60.62-80.55,60.62h-59.33c-46.56-6.3-27.85-30.63-16.76-50.63,13.32-24.01,17.86-39.3,20.73-61.36,1.72-13.26.46-23.18.09-25.57-.06-.36-.09-.56-.09-.56,0,0-.05.74-.19,2.01l.19-3.29s-8.41,33.78-24.98,45.89c-3.85,2.82-6.32,4.69-7.91,5.95,1.67-6.3,7.93-32.84-1.02-47.38,0,0-3.71,61.07-36.27,64.32-32.56,3.24-78.45-30.08-91.57-43.46.59,2.78,1.24,5.39,1.92,7.92-.43-.48-.65-.73-.65-.73,0,0,.54,1.26,1.38,3.42,1.17,3.98,2.45,7.62,3.83,10.99,4.56,14.65,9.42,37.14,2.17,51.23-5,9.73-64.07,39.87,19.46,60.72,7.05,2.3,15.05,4.13,23.9,4.99.02,0,.05,0,.07.01h.02c3.53.34,7.2.53,11,.53h154c53.73,0,97.28-30.48,97.28-84.2s-44.14-98.47-97.86-98.47ZM37.34,25.83c0-10.15,8.26-18.41,18.41-18.41s18.41,8.26,18.41,18.41-8.26,18.41-18.41,18.41-18.41-8.26-18.41-18.41ZM47.28,307.18c.72.64,1.44,1.45,2.14,2.39-38.92-37.65-31.13-115.11-2.14-142.21,6.78-6.34,13.67-11.58,20.51-15.9,1.37,2.03,2.82,4.05,4.37,6.04,16.91,21.73,33.48,37.54,51.35,48.9,3.7,16.08,12.94,29.04,28.12,39.32-14.01,27.29-55,103.92-104.35,61.47ZM276.98,42.57h.15c24.63,0,40.17,9.34,48.87,17.19,7.47,6.74,12.69,13.25,13.4,23.06-18.91-10.07-50.8-19.72-85.52,1.27-31.75,19.2-52.89,40.51-67.44,62.35-12.2,2.18-27.04.21-33.05.21-7.6,0-19.33,5.16-14.03,23.82,5.19,18.28,19.52,36.76,18.36,47.15-1.31,7.31-1.87,13.9-1.67,19.7-.68,1.07-1.21,2.21-1.62,3.36-18.03-10.54-22.07-22.19-24.87-40.34-2.52-16.31.75-35.98,10.27-61.9,10.1-27.48,28.09-51.14,52.04-68.4,24.87-17.93,54.3-27.43,85.11-27.48ZM216.37,47.99c-10.03,4.35-19.63,9.79-28.66,16.3-25.1,18.1-43.96,42.89-54.55,71.71-9.1,24.77-12.69,44.26-11.17,60.84-15.18-10.61-29.55-24.83-44.23-43.7-18.34-23.58-23.1-51.22-23.85-70.25-.55-13.92.89-25.42,1.91-31.55,5.53-.02,10.65-1.8,14.82-4.82,4.3,5.87,13.39,14.94,26.89,20.03,18.12,6.84,38.04,4.54,59.2-6.83,17.29-9.28,38.88-12.05,59.64-11.74ZM387.75,251.23s-8.5,28.89-14.45,42.06c-5.24,11.61-6.9,10.68-10.69,12.04,1.42-3.6,2.45-8.32,4.32-16.29,2.25-9.59,0-12.11,0-12.11-2.95,14.34-7.53,24.6-11.42,31.32-5.05,1.69-11.26,2.78-15.78.97-6.37-2.55-7.46-32.5-7.46-34.2,27.73,1.91,42.51-9.35,55.47-23.79Z"/>
      <path class="cls-2" d="M373.52,179.03c8-2.33,19.48-19.35,24.6-34.24,3.64-10.59,4.06-20.1-2.29-22.48-10.26-3.85-36.63-1.25-55.16,5.98-9.09,3.55-16.3,8.21-18.77,13.78-6.8,15.3,34.84,41.85,51.62,36.97Z"/>
      <path class="cls-2" d="M272.87,145.67c11.65-6.13,21.98-9.3,29.83-10.76-4.76-.61-14.59-1.93-17.72-5.49-7.02-7.95-18.27-10.08-26.45-8.29-8.67,1.91-13.28,11.99-7.33,24.54,2.68,5.64,2,12.44-.73,17.52,8.52-7.94,16.49-14.41,22.4-17.52Z"/>
    </g>
  </g>
  <path class="cls-2" d="M37.34,25.83c0-10.15,8.26-18.41,18.41-18.41s18.41,8.26,18.41,18.41-8.26,18.41-18.41,18.41-18.41-8.26-18.41-18.41Z"/>
  <path class="cls-2" d="M276.98,42.57h.15c24.63,0,40.17,9.34,48.87,17.19,7.47,6.74,12.69,13.25,13.4,23.06-18.91-10.07-50.8-19.72-85.52,1.27-31.75,19.2-52.89,40.51-67.44,62.35-12.2,2.18-27.04.21-33.05.21-7.6,0-19.33,5.16-14.03,23.82,5.19,18.28,19.52,36.76,18.36,47.15-1.31,7.31-1.87,13.9-1.67,19.7-.68,1.07-1.21,2.21-1.62,3.36-18.03-10.54-22.07-22.19-24.87-40.34-2.52-16.31.75-35.98,10.27-61.9,10.1-27.48,28.09-51.14,52.04-68.4,24.87-17.93,54.3-27.43,85.11-27.48Z"/>
</svg>